<?xml version="1.0" encoding="utf-8"?>
<!-- Generator: Adobe Illustrator 24.0.3, SVG Export Plug-In . SVG Version: 6.00 Build 0)  -->
<svg version="1.1" id="Livello_1" xmlns="http://www.w3.org/2000/svg" xmlns:xlink="http://www.w3.org/1999/xlink" x="0px" y="0px"
	 viewBox="0 0 1600 1600" style="enable-background:new 0 0 1600 1600;" xml:space="preserve">
<g transform="translate(0.000000,1600.000000) scale(0.100000,-0.100000)">
	<path d="M6893.2,9617.7c-107.6-9.5-210.9-50.3-298.3-117.8c-21.7-16.8-74.4-68.9-92.1-91.4c-31.2-39.2-64.7-96.9-82.6-141.8
		c-16-40.2-27.2-81.9-35-129.5l-4.4-26.7l-0.6-971.9c-0.4-706.1,0-979.5,1.5-999.5c13.3-172.3,104.5-328.2,248.3-424.4
		c68-45.5,148.1-76.5,229-88.7c39.8-6.1,76.9-6.9,273.8-6.3l196.1,0.6l-9.5,5.5c-90.1,51.8-171.3,186.6-216.1,357.9
		c-25.9,99.2-38.1,181.2-49.9,336.2c-1.7,22.1-2.5,297.6-2.9,1088.8l-0.6,1059.3l11.2-10.3c6.3-5.7,276.1-272.8,599.7-593.8
		l588.5-583.5v-182.8v-182.8l-31.8,31.6c-52.5,51.8-697.2,692.4-816.4,811.2l-110.4,110l-0.6-576.5c-0.6-581.8,0-644.8,6.5-753.4
		c14.5-245.4,48.9-428.6,106.2-565.1c11-26.3,37.1-76.9,51.6-100.3c29.7-47.8,82.6-106.6,123.4-136.9
		c68-50.6,148.3-85.5,251.3-108.7l33.7-7.8l501.3,0.8c551,0.6,507.8-0.4,567.9,11.8c183,36.9,340.2,170,409,345.7
		c16.4,42.1,26.7,81.9,34.8,135c3,20.6,3.4,78.6,4,987.2c0.4,657.6,0,974.2-1.5,993.2c-3.6,52.9-11.6,93.3-27.4,141.5
		c-71.2,214.4-262.2,364.4-487.6,383.6c-13.7,1.1-105.7,1.9-228.5,1.9h-205.6l11-6.3c19-10.7,34.1-22.7,56.5-45.1
		c88.5-88.1,153.8-242.4,186.4-439.8c10.3-62.6,16.9-124.5,23.4-218c1.5-23.8,2.3-309.8,2.9-1086l0.8-1053.4l-7.4,6.3
		c-4.2,3.6-204.5,201.8-445.1,440.6c-240.6,238.7-507.4,503-592.3,587.3l-154.8,153.3v183.5v183.3l352.8-350.9
		c193.8-193.1,409.7-408,479.8-477.5l127-126.6v575.9c0,333-0.8,600.3-1.9,633.8c-10.9,341.6-52.2,569.6-132.3,730.7
		c-29.1,58.6-59.2,102-100,143.9c-42.1,43.2-84,73.5-139.9,101.1c-50.6,24.9-102,42.5-168.1,57.3l-29.3,6.5l-494.2-0.2
		C7132.4,9619.5,6902.6,9618.7,6893.2,9617.7z"/>
</g>
</svg>
